<?xml version="1.0" standalone="no"?>
<!DOCTYPE svg PUBLIC "-//W3C//DTD SVG 20010904//EN"
 "http://www.w3.org/TR/2001/REC-SVG-20010904/DTD/svg10.dtd">
<svg version="1.0" xmlns="http://www.w3.org/2000/svg"
 width="260.000000pt" height="260.000000pt" viewBox="0 0 260.000000 260.000000"
 preserveAspectRatio="xMidYMid meet">
<metadata>
Created by potrace 1.11, written by Peter Selinger 2001-2013
</metadata>
<g transform="translate(0.000000,260.000000) scale(0.100000,-0.100000)"
fill="#000000" stroke="none">
<path d="M972 1818 l3 -93 48 -3 c26 -2 47 -7 47 -11 0 -10 -129 -620 -136
-643 -4 -14 -16 -18 -55 -18 l-49 0 0 -96 0 -95 258 3 c246 3 260 5 316 28 80
33 167 117 189 184 9 27 17 76 17 108 0 79 -26 129 -85 164 -25 14 -45 31 -45
38 0 6 22 19 49 29 67 23 145 96 167 154 10 26 18 70 18 98 -1 103 -46 175
-136 216 -51 23 -63 24 -331 27 l-278 3 3 -93z m514 -130 c22 -21 27 -36 26
-73 -1 -93 -50 -127 -194 -133 -54 -2 -98 -2 -98 0 0 4 35 169 46 216 5 23 7
24 99 20 87 -3 97 -5 121 -30z m-106 -413 c36 -18 52 -68 40 -122 -10 -45 -45
-78 -98 -92 -35 -10 -192 -16 -192 -7 0 8 41 202 46 219 5 14 18 17 90 17 56
0 95 -5 114 -15z"/>
</g>
</svg>
