<?xml version="1.0" encoding="utf-8"?>
<!-- Generator: Adobe Illustrator 17.1.0, SVG Export Plug-In . SVG Version: 6.00 Build 0)  -->
<!DOCTYPE svg PUBLIC "-//W3C//DTD SVG 1.1//EN" "http://www.w3.org/Graphics/SVG/1.1/DTD/svg11.dtd">
<svg version="1.1" id="Layer_1" xmlns="http://www.w3.org/2000/svg" xmlns:xlink="http://www.w3.org/1999/xlink" x="0px" y="0px"
	 viewBox="1.979 0 17.021 17" enable-background="new 1.979 0 17.021 17" xml:space="preserve">
<path fill="#F8991C" d="M19,8.5c0,1.111-0.814,2.052-1.214,3.018c-0.415,1.001-0.521,2.238-1.275,2.993s-1.992,0.86-2.993,1.275
	C12.552,16.186,11.611,17,10.5,17s-2.052-0.814-3.018-1.214C6.481,15.37,5.244,15.265,4.49,14.51s-0.86-1.992-1.275-2.993
	C2.814,10.552,2,9.611,2,8.5s0.814-2.052,1.214-3.018C3.63,4.481,3.735,3.244,4.49,2.49s1.992-0.86,2.993-1.275
	C8.448,0.814,9.389,0,10.5,0s2.052,0.814,3.018,1.214c1.001,0.415,2.238,0.521,2.993,1.275c0.755,0.754,0.86,1.992,1.275,2.993
	C18.186,6.448,19,7.389,19,8.5z"/>
<path fill="#754C24" d="M8.155,3.249c-0.175-0.13,1.592-0.13,1.417,0c0.175-0.13,0.175,1.181,0,1.051
	C9.747,4.43,7.98,4.145,8.155,4.071C7.979,4.145,7.979,3.119,8.155,3.249z"/>
<path fill="#754C24" d="M11.864,4.442c-0.198-0.153,0.372,1.387,0.457,1.234c-0.085,0.153,1.34,0.153,1.143,0
	c0.198,0.153-0.087-1.387-0.229-1.234C13.376,4.289,11.666,4.289,11.864,4.442z"/>
<path fill="#F8991C" d="M10.529,6.784c0.006-0.215,0.918,0.07,0.731,0.229c0.186-0.158,0.186,1.723,0,1.508
	c0.186,0.215-1.695-0.127-1.508-0.274C9.566,8.394,10.535,6.569,10.529,6.784z"/>
<path fill="#754C24" d="M13.594,11.698c-0.062-0.181,1.135,0.56,0.96,0.594c0.175-0.034,0.175,1.049,0,0.869
	c0.175,0.181-1.592,0.181-1.417,0C12.961,13.341,13.531,11.517,13.594,11.698z"/>
<path fill="#754C24" d="M9.405,12.505C9.4,12.353,8.544,13.55,8.72,13.465c-0.175,0.085,1.25,0.427,1.143,0.274
	c0.107,0.153,0.449-0.617,0.274-0.617C10.312,13.122,9.4,12.353,9.405,12.505z"/>
<path fill="#754C24" d="M15.62,7.729c-0.006-0.153-0.861,1.045-0.686,0.96c-0.175,0.085,1.25,0.427,1.143,0.274
	c0.107,0.153,0.449-0.617,0.274-0.617C16.526,8.346,15.614,7.576,15.62,7.729z"/>
<path fill="#754C24" d="M6.576,8.128c0.209-0.232,0.209,2.505,0,2.194c0.209,0.311-1.9-1.057-1.691-1.097
	c-0.209,0.04,0.361-1.728,0.457-1.417C5.246,7.497,6.785,7.896,6.576,8.128z"/>
</svg>
